<svg xmlns="http://www.w3.org/2000/svg" fill="none" viewBox="0 0 256 396"><path fill="url(#a)" d="M256 127.699C256 214.225 160 396 128 396S0 214.225 0 127.699C0 57.173 57.307 0 128 0c70.692 0 128 57.173 128 127.699Z"/><path fill="url(#b)" d="M256 127.699C256 214.225 160 396 128 396S0 214.225 0 127.699C0 57.173 57.307 0 128 0c70.692 0 128 57.173 128 127.699Z"/><path fill="#000" fill-opacity=".3" fill-rule="evenodd" d="M128 20c59.647 0 108 51.398 108 114.8 0 69.958-92.448 241.2-108 241.2-15.552 0-108-171.242-108-241.2C20 71.398 68.353 20 128 20Zm0 1.914c-58.618 0-106.138 50.845-106.138 113.565 0 69.206 90.854 238.607 106.138 238.607 15.284 0 106.138-169.401 106.138-238.607 0-62.72-47.52-113.565-106.138-113.565Z" clip-rule="evenodd"/><path fill="url(#c)" fill-rule="evenodd" d="M128 12c64.065 0 116 53.708 116 119.96C244 209.242 149 384 128 384S12 209.242 12 131.96C12 65.708 63.935 12 128 12Zm0 8C68.353 20 20 71.398 20 134.8 20 204.758 112.448 376 128 376c15.552 0 108-171.242 108-241.2C236 71.398 187.647 20 128 20Z" clip-rule="evenodd"/><path fill="url(#d)" fill-rule="evenodd" d="M128 0c70.692 0 128 57.173 128 127.699C256 214.225 160 396 128 396S0 214.225 0 127.699C0 57.173 57.307 0 128 0Zm0 4C59.517 4 4 60.018 4 129.119 4 213.897 97 392 128 392s124-178.103 124-262.881C252 60.018 196.483 4 128 4Z" clip-rule="evenodd"/><g filter="url(#e)"><path fill="#120000" fill-rule="evenodd" d="M141.405 59.203c11.525-9.354 26.351-5.192 31.636 8.55 2.624 6.825 2.54 14.377.753 21.39a38.328 38.328 0 0 1-3.661 9.038c6.886-4.988 16.337-7.271 24.072-2.754 5.742 3.487 8.914 9.594 9.627 16.169.787 7.264-1.217 14.545-4.747 20.86-3.873 6.786-9.454 11.915-15.52 14.615-6.153 2.738-13.476 2.998-19.289-.684l8.011 7.651c17.397 16.951 5.199 47.717-19.07 47.96-9.16 0-15.758-8.312-24.867-8.538l-.394-.005c-9.271 0-15.997 8.394-25.262 8.543-25.042 0-37.15-30.688-19.07-47.96l7.854-7.502c-5.818 3.545-12.96 3.242-19.044.535-6.656-2.963-11.89-8.386-15.52-14.615-3.872-6.785-5.465-14.224-4.746-20.86.718-6.628 3.815-12.775 9.627-16.169 5.847-3.277 12.697-3.03 18.732-.345 6.884 3.064 12.24 8.75 15.875 15.252 3.614 6.612 5.088 13.794 4.392 20.223-.421 3.879-1.658 7.592-3.776 10.687l16.526-15.786c8.063-7.506 20.778-7.683 28.822 0l16.789 16.038c-2.224-3.144-3.517-6.954-3.949-10.939-.819-7.554 1.353-15.269 5.253-21.719-4.787 3.156-10.48 4.442-16.083 3.033-6.495-1.761-11.066-6.898-13.457-13.116a29.282 29.282 0 0 1-1.083-3.446 29.532 29.532 0 0 1-1.076 3.425c-2.372 6.168-7.008 11.247-13.457 13.115-6.502 1.762-13.019-.378-18.18-4.566-5.663-4.598-9.331-11.2-11.238-18.162-2.004-7.563-1.641-15.164.752-21.39 2.391-6.217 6.963-11.355 13.458-13.115 6.504-1.637 13.049.402 18.178 4.566 5.993 4.865 9.866 12.038 11.569 19.497 1.707-7.46 5.572-14.612 11.563-19.476Z" clip-rule="evenodd"/></g><path fill="url(#f)" d="M116.307 128.353a16.844 16.844 0 0 1 23.297 0l29.92 28.58C185.03 171.745 174.604 198 153.216 198c-7.874 0-14.631-8.543-25.26-8.543-10.63 0-17.387 8.543-25.261 8.543-21.388 0-31.814-26.255-16.307-41.067l29.919-28.58Z"/><path fill="url(#g)" d="M63.812 98.883c8.887-5.19 21.763.54 28.76 12.798s5.464 26.403-3.423 31.593c-8.887 5.189-21.763-.541-28.76-12.799-6.996-12.258-5.464-26.402 3.423-31.592Z"/><path fill="url(#h)" d="M163.428 111.681c6.997-12.258 19.873-17.988 28.76-12.798 8.887 5.19 10.419 19.334 3.423 31.592-6.997 12.258-19.873 17.989-28.761 12.799-8.886-5.19-10.419-19.335-3.422-31.593Z"/><path fill="url(#i)" d="M134.032 78.391c3.622-13.672 14.593-22.578 24.505-19.891 9.913 2.686 15.012 15.948 11.39 29.62-3.621 13.672-14.593 22.578-24.505 19.891-9.912-2.686-15.011-15.947-11.39-29.62Z"/><path fill="url(#j)" d="M101.141 58.478c9.912-2.686 20.884 6.22 24.505 19.892 3.622 13.672-1.477 26.933-11.39 29.619-9.912 2.687-20.883-6.219-24.505-19.89-3.621-13.673 1.478-26.934 11.39-29.62Z"/><g filter="url(#k)"><path fill="url(#l)" fill-rule="evenodd" d="M114.564 126.555c7.491-6.992 19.321-7.12 26.763-.012l30.338 28.989c16.338 16.249 4.454 44.769-18.46 44.964-9.14-.005-15.725-8.536-24.83-8.536l-.01-.001-.394-.005h-.019c-9.493.001-16.385 8.622-25.813 8.539-23.294-.448-34.465-29.145-17.482-45.369l29.907-28.569Zm26.073.711c-6.996-6.682-17.915-6.787-25.033-.313l-30.256 28.894c-16.472 15.734-5.415 43.65 17.343 43.65 9.186-.152 15.881-8.542 25.261-8.543l.458.006c9.27.232 15.968 8.619 25.334 8.533 22.222-.428 32.985-27.601 17.194-43.275l-30.301-28.952Z" clip-rule="evenodd"/><path fill="url(#m)" d="M64.46 98.527c.065-.034.129-.069.194-.1l.104-.05c-.1.048-.199.099-.298.15Z"/><path fill="url(#n)" fill-rule="evenodd" d="M63.053 96.44c5.193-2.794 11.296-2.463 16.862.014l.537.247c5.36 2.532 10.343 7.098 13.936 13.131l.354.608.343.613c3.373 6.171 4.788 12.819 4.272 18.769l-.055.574c-.66 6.091-3.417 11.587-8.404 14.737l-.489.298c-5.138 3-11.228 2.839-16.826.502l-.54-.232c-5.39-2.399-10.434-6.856-14.12-12.801l-.353-.58-.36-.618c-3.727-6.537-5.233-13.657-4.552-19.945l.07-.587c.794-6.042 3.681-11.435 8.798-14.434l.527-.295Zm16.457.927c-5.356-2.383-11.124-2.662-15.989-.043l-.467.262c-4.957 2.895-7.745 8.221-8.402 14.28-.656 6.061.795 12.975 4.434 19.35l.346.593c3.618 6.076 8.662 10.593 14.017 12.977 5.528 2.459 11.495 2.678 16.455-.219l.46-.279c4.67-2.949 7.307-8.132 7.943-14.001.636-5.872-.706-12.545-4.099-18.752l-.334-.599c-3.639-6.375-8.837-11.11-14.364-13.57Z" clip-rule="evenodd"/><path fill="url(#o)" fill-rule="evenodd" d="M176.086 96.453c5.743-2.476 12.4-2.755 17.881.582 4.969 3.15 7.718 8.64 8.377 14.722.677 6.987-1.16 13.87-4.559 19.955-3.428 6.006-8.505 11.09-14.826 13.987-5.517 2.455-12.004 2.744-17.366-.27-5.406-3.157-8.17-9.004-8.892-15.035-.779-7.189 1.315-14.382 4.912-20.563l.001.001c3.714-6.235 8.909-10.904 14.472-13.38Zm17.32 1.41c-5.209-3.17-11.45-2.928-16.913-.497-5.355 2.382-10.4 6.9-14.018 12.975-3.493 5.989-5.535 12.975-4.78 19.946.657 6.058 3.447 11.384 8.403 14.279 5.139 2.886 11.166 2.573 16.455.22 5.527-2.46 10.725-7.195 14.364-13.57 3.275-5.852 5.162-12.614 4.433-19.351-.636-5.869-3.274-11.052-7.944-14.001Z" clip-rule="evenodd"/><path fill="url(#p)" d="M52.031 113.353c.008-.168.017-.336.028-.504l.002-.02a22.67 22.67 0 0 0-.03.524Z"/><path fill="url(#q)" fill-rule="evenodd" d="M142.351 60.37c4.94-3.907 11.221-5.907 17.405-4.12 5.62 1.74 9.689 6.333 11.885 12.042 2.362 6.343 2.419 13.249.877 19.785-1.771 6.953-5.347 13.445-10.909 18.064-4.734 3.843-10.541 5.762-16.274 4.425-6.247-1.567-10.693-6.495-13.016-12.348-2.268-5.9-2.634-13.176-.703-20.467h-.001c1.843-6.659 5.309-12.977 10.736-17.382Zm17.094-3.17c-5.859-1.7-11.821.179-16.464 3.947-5.256 4.267-8.618 10.407-10.398 16.86-1.883 7.108-1.516 14.167.67 19.852 2.152 5.597 6.366 10.226 12.297 11.731 5.372 1.256 10.87-.525 15.429-4.226 5.435-4.412 8.859-10.825 10.569-17.527 1.688-6.882 1.277-13.678-.84-19.185-2.116-5.504-5.993-9.823-11.263-11.451Z" clip-rule="evenodd"/><path fill="url(#r)" fill-rule="evenodd" d="M101.054 55.92c5.733-1.337 11.539.583 16.274 4.426 5.357 4.46 8.958 10.677 10.734 17.382 1.718 6.734 1.748 13.9-.703 20.467-2.195 5.709-6.264 10.3-11.883 12.041-6.178 1.792-12.474-.208-17.407-4.118-5.425-4.404-8.907-10.731-10.738-17.396-1.927-7.285-1.56-14.555.707-20.452 2.308-5.826 6.774-10.784 13.016-12.35Zm15.644 5.203c-4.559-3.7-10.058-5.481-15.429-4.225-5.931 1.494-10.148 6.14-12.297 11.731-2.186 5.685-2.553 12.743-.67 19.852 1.777 6.452 5.143 12.594 10.398 16.86 4.642 3.768 10.605 5.647 16.464 3.946 5.27-1.629 9.146-5.947 11.263-11.45 2.434-6.331 2.328-13.352.67-19.853-1.883-7.108-5.692-13.04-10.399-16.86Z" clip-rule="evenodd"/><path fill="url(#s)" d="M60.603 96.188c.044-.03.087-.063.131-.093l.017-.01c-.05.033-.098.069-.148.103Z"/></g><path fill="url(#t)" fill-rule="evenodd" d="M116.306 128.352a16.845 16.845 0 0 1 23.296 0l29.92 28.581c15.506 14.812 5.08 41.066-16.307 41.067-7.875-.001-14.632-8.543-25.261-8.543s-17.386 8.542-25.261 8.543c-21.387-.001-31.813-26.255-16.307-41.067l29.92-28.581Zm22.821 1.748c-6.261-5.899-16.085-5.899-22.346 0l-28.698 27.041c-14.873 14.014-4.873 38.854 15.642 38.855 7.552-.001 14.034-8.083 24.229-8.083 10.195 0 16.676 8.082 24.229 8.083 20.514-.001 30.514-24.841 15.641-38.855L139.127 130.1Z" clip-rule="evenodd"/><path fill="url(#u)" fill-rule="evenodd" d="M163.428 111.679c6.997-12.257 19.873-17.986 28.76-12.797 8.887 5.19 10.419 19.334 3.423 31.592-6.997 12.258-19.873 17.988-28.76 12.798-8.887-5.19-10.419-19.335-3.423-31.593Zm27.523-10.955c-8.019-4.76-19.638.495-25.951 11.736-6.313 11.242-4.93 24.214 3.088 28.974 8.019 4.76 19.637-.495 25.951-11.737 6.313-11.242 4.93-24.213-3.088-28.973Z" clip-rule="evenodd"/><path fill="url(#v)" fill-rule="evenodd" d="M134.033 78.393c3.622-13.672 14.593-22.578 24.505-19.892 9.912 2.687 15.011 15.949 11.389 29.62-3.621 13.673-14.592 22.579-24.504 19.892-9.912-2.687-15.012-15.948-11.39-29.62Zm23.821-17.93c-8.876-2.473-18.699 5.728-21.942 18.317-3.243 12.589 1.322 24.799 10.198 27.273 8.876 2.474 18.7-5.726 21.943-18.315 3.243-12.59-1.323-24.801-10.199-27.275Z" clip-rule="evenodd"/><path fill="url(#w)" fill-rule="evenodd" d="M101.141 58.478c9.912-2.686 20.883 6.22 24.505 19.892s-1.477 26.933-11.39 29.62c-9.912 2.686-20.883-6.22-24.504-19.892-3.622-13.672 1.477-26.933 11.389-29.62Zm22.631 20.278c-3.243-12.588-13.067-20.79-21.943-18.316-8.876 2.474-13.442 14.686-10.198 27.274 3.243 12.589 13.066 20.789 21.942 18.316 8.876-2.474 13.442-14.685 10.199-27.274Z" clip-rule="evenodd"/><path fill="url(#x)" fill-rule="evenodd" d="M63.811 98.882c8.887-5.19 21.765.54 28.761 12.798 6.996 12.258 5.464 26.403-3.423 31.593-8.887 5.19-21.763-.541-28.76-12.799-6.996-12.258-5.464-26.402 3.422-31.592ZM91 112.46c-6.313-11.241-17.932-16.496-25.951-11.736-8.019 4.76-9.4 17.731-3.087 28.973 6.313 11.241 17.931 16.497 25.95 11.737 8.019-4.76 9.4-17.732 3.088-28.974Z" clip-rule="evenodd"/><defs><linearGradient id="a" x1="23" x2="197" y1="43" y2="295" gradientUnits="userSpaceOnUse"><stop stop-color="#DC143C"/><stop offset=".5" stop-color="#DC143C"/><stop offset="1" stop-color="#8B0000"/></linearGradient><linearGradient id="c" x1="12" x2="244" y1="12" y2="384" gradientUnits="userSpaceOnUse"><stop stop-color="#FFF0DF"/><stop offset="1" stop-color="#A9334B"/></linearGradient><linearGradient id="d" x1="72.5" x2="131.5" y1="293" y2="396" gradientUnits="userSpaceOnUse"><stop stop-color="#F42F40" stop-opacity="0"/><stop offset="1" stop-color="#F42F40"/></linearGradient><linearGradient id="f" x1="56" x2="200" y1="58" y2="198" gradientUnits="userSpaceOnUse"><stop stop-color="#E9EDEB"/><stop offset="1" stop-color="#A2B9C7"/></linearGradient><linearGradient id="g" x1="56" x2="200" y1="58" y2="198" gradientUnits="userSpaceOnUse"><stop stop-color="#E9EDEB"/><stop offset="1" stop-color="#A2B9C7"/></linearGradient><linearGradient id="h" x1="56" x2="200" y1="58" y2="198" gradientUnits="userSpaceOnUse"><stop stop-color="#E9EDEB"/><stop offset="1" stop-color="#A2B9C7"/></linearGradient><linearGradient id="i" x1="56" x2="200" y1="58" y2="198" gradientUnits="userSpaceOnUse"><stop stop-color="#E9EDEB"/><stop offset="1" stop-color="#A2B9C7"/></linearGradient><linearGradient id="j" x1="56" x2="200" y1="58" y2="198" gradientUnits="userSpaceOnUse"><stop stop-color="#E9EDEB"/><stop offset="1" stop-color="#A2B9C7"/></linearGradient><linearGradient id="l" x1="54" x2="202" y1="55" y2="200" gradientUnits="userSpaceOnUse"><stop stop-color="red"/><stop offset="1" stop-color="#410511"/></linearGradient><linearGradient id="m" x1="54" x2="202" y1="55" y2="200" gradientUnits="userSpaceOnUse"><stop stop-color="red"/><stop offset="1" stop-color="#410511"/></linearGradient><linearGradient id="n" x1="54" x2="202" y1="55" y2="200" gradientUnits="userSpaceOnUse"><stop stop-color="red"/><stop offset="1" stop-color="#410511"/></linearGradient><linearGradient id="o" x1="54" x2="202" y1="55" y2="200" gradientUnits="userSpaceOnUse"><stop stop-color="red"/><stop offset="1" stop-color="#410511"/></linearGradient><linearGradient id="p" x1="54" x2="202" y1="55" y2="200" gradientUnits="userSpaceOnUse"><stop stop-color="red"/><stop offset="1" stop-color="#410511"/></linearGradient><linearGradient id="q" x1="54" x2="202" y1="55" y2="200" gradientUnits="userSpaceOnUse"><stop stop-color="red"/><stop offset="1" stop-color="#410511"/></linearGradient><linearGradient id="r" x1="54" x2="202" y1="55" y2="200" gradientUnits="userSpaceOnUse"><stop stop-color="red"/><stop offset="1" stop-color="#410511"/></linearGradient><linearGradient id="s" x1="54" x2="202" y1="55" y2="200" gradientUnits="userSpaceOnUse"><stop stop-color="red"/><stop offset="1" stop-color="#410511"/></linearGradient><linearGradient id="t" x1="114.5" x2="162" y1="127" y2="198" gradientUnits="userSpaceOnUse"><stop stop-color="#fff"/><stop offset=".5" stop-color="#fff" stop-opacity=".5"/><stop offset="1" stop-opacity=".3"/></linearGradient><linearGradient id="u" x1="173.895" x2="207.209" y1="99.125" y2="131.218" gradientUnits="userSpaceOnUse"><stop stop-color="#fff"/><stop offset=".5" stop-color="#fff" stop-opacity=".5"/><stop offset="1" stop-opacity=".3"/></linearGradient><linearGradient id="v" x1="146.731" x2="181.225" y1="60.281" y2="89.908" gradientUnits="userSpaceOnUse"><stop stop-color="#fff"/><stop offset=".5" stop-color="#fff" stop-opacity=".5"/><stop offset="1" stop-opacity=".3"/></linearGradient><linearGradient id="w" x1="102.449" x2="136.944" y1="60.257" y2="89.885" gradientUnits="userSpaceOnUse"><stop stop-color="#fff"/><stop offset=".5" stop-color="#fff" stop-opacity=".5"/><stop offset="1" stop-opacity=".3"/></linearGradient><linearGradient id="x" x1="70.856" x2="104.171" y1="99.125" y2="131.218" gradientUnits="userSpaceOnUse"><stop stop-color="#fff"/><stop offset=".5" stop-color="#fff" stop-opacity=".5"/><stop offset="1" stop-opacity=".3"/></linearGradient><filter id="e" width="200.004" height="195.949" x="52" y="54.051" color-interpolation-filters="sRGB" filterUnits="userSpaceOnUse"><feFlood flood-opacity="0" result="BackgroundImageFix"/><feColorMatrix in="SourceAlpha" result="hardAlpha" values="0 0 0 0 0 0 0 0 0 0 0 0 0 0 0 0 0 0 127 0"/><feOffset dx="24" dy="24"/><feGaussianBlur stdDeviation="12"/><feComposite in2="hardAlpha" operator="out"/><feColorMatrix values="0 0 0 0 0 0 0 0 0 0 0 0 0 0 0 0 0 0 0.2 0"/><feBlend in2="BackgroundImageFix" result="effect1_dropShadow_4291_81223"/><feColorMatrix in="SourceAlpha" result="hardAlpha" values="0 0 0 0 0 0 0 0 0 0 0 0 0 0 0 0 0 0 127 0"/><feOffset dx="16" dy="16"/><feGaussianBlur stdDeviation="8"/><feComposite in2="hardAlpha" operator="out"/><feColorMatrix values="0 0 0 0 0 0 0 0 0 0 0 0 0 0 0 0 0 0 0.2 0"/><feBlend in2="effect1_dropShadow_4291_81223" result="effect2_dropShadow_4291_81223"/><feColorMatrix in="SourceAlpha" result="hardAlpha" values="0 0 0 0 0 0 0 0 0 0 0 0 0 0 0 0 0 0 127 0"/><feOffset dx="12" dy="12"/><feGaussianBlur stdDeviation="6"/><feComposite in2="hardAlpha" operator="out"/><feColorMatrix values="0 0 0 0 0 0 0 0 0 0 0 0 0 0 0 0 0 0 0.2 0"/><feBlend in2="effect2_dropShadow_4291_81223" result="effect3_dropShadow_4291_81223"/><feColorMatrix in="SourceAlpha" result="hardAlpha" values="0 0 0 0 0 0 0 0 0 0 0 0 0 0 0 0 0 0 127 0"/><feOffset dx="8" dy="8"/><feGaussianBlur stdDeviation="4"/><feComposite in2="hardAlpha" operator="out"/><feColorMatrix values="0 0 0 0 0 0 0 0 0 0 0 0 0 0 0 0 0 0 0.2 0"/><feBlend in2="effect3_dropShadow_4291_81223" result="effect4_dropShadow_4291_81223"/><feColorMatrix in="SourceAlpha" result="hardAlpha" values="0 0 0 0 0 0 0 0 0 0 0 0 0 0 0 0 0 0 127 0"/><feOffset dx="4" dy="4"/><feGaussianBlur stdDeviation="2"/><feComposite in2="hardAlpha" operator="out"/><feColorMatrix values="0 0 0 0 0 0 0 0 0 0 0 0 0 0 0 0 0 0 0.2 0"/><feBlend in2="effect4_dropShadow_4291_81223" result="effect5_dropShadow_4291_81223"/><feBlend in="SourceGraphic" in2="effect5_dropShadow_4291_81223" result="shape"/></filter><filter id="k" width="152.453" height="147" x="51.031" y="54.496" color-interpolation-filters="sRGB" filterUnits="userSpaceOnUse"><feFlood flood-opacity="0" result="BackgroundImageFix"/><feBlend in="SourceGraphic" in2="BackgroundImageFix" result="shape"/><feGaussianBlur result="effect1_foregroundBlur_4291_81223" stdDeviation=".5"/></filter><radialGradient id="b" cx="0" cy="0" r="1" gradientTransform="matrix(85.50005 168.49992 -188.69929 95.7496 42.5 19)" gradientUnits="userSpaceOnUse"><stop stop-color="#fff" stop-opacity=".3"/><stop offset="1" stop-color="#fff" stop-opacity="0"/></radialGradient></defs></svg>